<svg id="my-svg" width="100%" xmlns="http://www.w3.org/2000/svg" xmlns:xlink="http://www.w3.org/1999/xlink" class="flowchart" style="max-width: 2507.66px; background-color: transparent;" viewBox="0 0 2507.662841796875 205.4375" role="graphics-document document" aria-roledescription="flowchart-v2"><style>#my-svg{font-family:"trebuchet ms",verdana,arial,sans-serif;font-size:16px;fill:#000000;}@keyframes edge-animation-frame{from{stroke-dashoffset:0;}}@keyframes dash{to{stroke-dashoffset:0;}}#my-svg .edge-animation-slow{stroke-dasharray:9,5!important;stroke-dashoffset:900;animation:dash 50s linear infinite;stroke-linecap:round;}#my-svg .edge-animation-fast{stroke-dasharray:9,5!important;stroke-dashoffset:900;animation:dash 20s linear infinite;stroke-linecap:round;}#my-svg .error-icon{fill:#552222;}#my-svg .error-text{fill:#552222;stroke:#552222;}#my-svg .edge-thickness-normal{stroke-width:1px;}#my-svg .edge-thickness-thick{stroke-width:3.5px;}#my-svg .edge-pattern-solid{stroke-dasharray:0;}#my-svg .edge-thickness-invisible{stroke-width:0;fill:none;}#my-svg .edge-pattern-dashed{stroke-dasharray:3;}#my-svg .edge-pattern-dotted{stroke-dasharray:2;}#my-svg .marker{fill:#666;stroke:#666;}#my-svg .marker.cross{stroke:#666;}#my-svg svg{font-family:"trebuchet ms",verdana,arial,sans-serif;font-size:16px;}#my-svg p{margin:0;}#my-svg .label{font-family:"trebuchet ms",verdana,arial,sans-serif;color:#000000;}#my-svg .cluster-label text{fill:#333;}#my-svg .cluster-label span{color:#333;}#my-svg .cluster-label span p{background-color:transparent;}#my-svg .label text,#my-svg span{fill:#000000;color:#000000;}#my-svg .node rect,#my-svg .node circle,#my-svg .node ellipse,#my-svg .node polygon,#my-svg .node path{fill:#eee;stroke:#999;stroke-width:1px;}#my-svg .rough-node .label text,#my-svg .node .label text,#my-svg .image-shape .label,#my-svg .icon-shape .label{text-anchor:middle;}#my-svg .node .katex path{fill:#000;stroke:#000;stroke-width:1px;}#my-svg .rough-node .label,#my-svg .node .label,#my-svg .image-shape .label,#my-svg .icon-shape .label{text-align:center;}#my-svg .node.clickable{cursor:pointer;}#my-svg .root .anchor path{fill:#666!important;stroke-width:0;stroke:#666;}#my-svg .arrowheadPath{fill:#333333;}#my-svg .edgePath .path{stroke:#666;stroke-width:1px;}#my-svg .flowchart-link{stroke:#666;fill:none;}#my-svg .edgeLabel{background-color:white;text-align:center;}#my-svg .edgeLabel p{background-color:white;}#my-svg .edgeLabel rect{opacity:0.5;background-color:white;fill:white;}#my-svg .labelBkg{background-color:rgba(255, 255, 255, 0.5);}#my-svg .cluster rect{fill:hsl(0, 0%, 98.9215686275%);stroke:#707070;stroke-width:1px;}#my-svg .cluster text{fill:#333;}#my-svg .cluster span{color:#333;}#my-svg div.mermaidTooltip{position:absolute;text-align:center;max-width:200px;padding:2px;font-family:"trebuchet ms",verdana,arial,sans-serif;font-size:12px;background:hsl(-160, 0%, 93.3333333333%);border:1px solid #707070;border-radius:2px;pointer-events:none;z-index:100;}#my-svg .flowchartTitleText{text-anchor:middle;font-size:18px;fill:#000000;}#my-svg rect.text{fill:none;stroke-width:0;}#my-svg .icon-shape,#my-svg .image-shape{background-color:white;text-align:center;}#my-svg .icon-shape p,#my-svg .image-shape p{background-color:white;padding:2px;}#my-svg .icon-shape .label rect,#my-svg .image-shape .label rect{opacity:0.5;background-color:white;fill:white;}#my-svg .label-icon{display:inline-block;height:1em;overflow:visible;vertical-align:-0.125em;}#my-svg .node .label-icon path{fill:currentColor;stroke:revert;stroke-width:revert;}#my-svg .node .neo-node{stroke:#999;}#my-svg [data-look="neo"].node rect,#my-svg [data-look="neo"].cluster rect,#my-svg [data-look="neo"].node polygon{stroke:url(#my-svg-gradient);filter:drop-shadow( 1px 2px 2px rgba(185,185,185,1));}#my-svg [data-look="neo"].node path{stroke:url(#my-svg-gradient);stroke-width:1px;}#my-svg [data-look="neo"].node .outer-path{filter:drop-shadow( 1px 2px 2px rgba(185,185,185,1));}#my-svg [data-look="neo"].node .neo-line path{stroke:#999;filter:none;}#my-svg [data-look="neo"].node circle{stroke:url(#my-svg-gradient);filter:drop-shadow( 1px 2px 2px rgba(185,185,185,1));}#my-svg [data-look="neo"].node circle .state-start{fill:#000000;}#my-svg [data-look="neo"].icon-shape .icon{fill:url(#my-svg-gradient);filter:drop-shadow( 1px 2px 2px rgba(185,185,185,1));}#my-svg [data-look="neo"].icon-shape .icon-neo path{stroke:url(#my-svg-gradient);filter:drop-shadow( 1px 2px 2px rgba(185,185,185,1));}#my-svg :root{--mermaid-font-family:"trebuchet ms",verdana,arial,sans-serif;}</style><g><marker id="my-svg_flowchart-v2-pointEnd" class="marker flowchart-v2" viewBox="0 0 10 10" refX="5" refY="5" markerUnits="userSpaceOnUse" markerWidth="8" markerHeight="8" orient="auto"><path d="M 0 0 L 10 5 L 0 10 z" class="arrowMarkerPath" style="stroke-width: 1; stroke-dasharray: 1, 0;"/></marker><marker id="my-svg_flowchart-v2-pointStart" class="marker flowchart-v2" viewBox="0 0 10 10" refX="4.5" refY="5" markerUnits="userSpaceOnUse" markerWidth="8" markerHeight="8" orient="auto"><path d="M 0 5 L 10 10 L 10 0 z" class="arrowMarkerPath" style="stroke-width: 1; stroke-dasharray: 1, 0;"/></marker><marker id="my-svg_flowchart-v2-pointEnd-margin" class="marker flowchart-v2" viewBox="0 0 11.5 14" refX="11.5" refY="7" markerUnits="userSpaceOnUse" markerWidth="10.5" markerHeight="14" orient="auto"><path d="M 0 0 L 11.5 7 L 0 14 z" class="arrowMarkerPath" style="stroke-width: 0; stroke-dasharray: 1, 0;"/></marker><marker id="my-svg_flowchart-v2-pointStart-margin" class="marker flowchart-v2" viewBox="0 0 11.5 14" refX="1" refY="7" markerUnits="userSpaceOnUse" markerWidth="11.5" markerHeight="14" orient="auto"><polygon points="0,7 11.5,14 11.5,0" class="arrowMarkerPath" style="stroke-width: 0; stroke-dasharray: 1, 0;"/></marker><marker id="my-svg_flowchart-v2-circleEnd" class="marker flowchart-v2" viewBox="0 0 10 10" refX="11" refY="5" markerUnits="userSpaceOnUse" markerWidth="11" markerHeight="11" orient="auto"><circle cx="5" cy="5" r="5" class="arrowMarkerPath" style="stroke-width: 1; stroke-dasharray: 1, 0;"/></marker><marker id="my-svg_flowchart-v2-circleStart" class="marker flowchart-v2" viewBox="0 0 10 10" refX="-1" refY="5" markerUnits="userSpaceOnUse" markerWidth="11" markerHeight="11" orient="auto"><circle cx="5" cy="5" r="5" class="arrowMarkerPath" style="stroke-width: 1; stroke-dasharray: 1, 0;"/></marker><marker id="my-svg_flowchart-v2-circleEnd-margin" class="marker flowchart-v2" viewBox="0 0 10 10" refY="5" refX="12.25" markerUnits="userSpaceOnUse" markerWidth="14" markerHeight="14" orient="auto"><circle cx="5" cy="5" r="5" class="arrowMarkerPath" style="stroke-width: 0; stroke-dasharray: 1, 0;"/></marker><marker id="my-svg_flowchart-v2-circleStart-margin" class="marker flowchart-v2" viewBox="0 0 10 10" refX="-2" refY="5" markerUnits="userSpaceOnUse" markerWidth="14" markerHeight="14" orient="auto"><circle cx="5" cy="5" r="5" class="arrowMarkerPath" style="stroke-width: 0; stroke-dasharray: 1, 0;"/></marker><marker id="my-svg_flowchart-v2-crossEnd" class="marker cross flowchart-v2" viewBox="0 0 11 11" refX="12" refY="5.2" markerUnits="userSpaceOnUse" markerWidth="11" markerHeight="11" orient="auto"><path d="M 1,1 l 9,9 M 10,1 l -9,9" class="arrowMarkerPath" style="stroke-width: 2; stroke-dasharray: 1, 0;"/></marker><marker id="my-svg_flowchart-v2-crossStart" class="marker cross flowchart-v2" viewBox="0 0 11 11" refX="-1" refY="5.2" markerUnits="userSpaceOnUse" markerWidth="11" markerHeight="11" orient="auto"><path d="M 1,1 l 9,9 M 10,1 l -9,9" class="arrowMarkerPath" style="stroke-width: 2; stroke-dasharray: 1, 0;"/></marker><marker id="my-svg_flowchart-v2-crossEnd-margin" class="marker cross flowchart-v2" viewBox="0 0 15 15" refX="17.7" refY="7.5" markerUnits="userSpaceOnUse" markerWidth="12" markerHeight="12" orient="auto"><path d="M 1,1 L 14,14 M 1,14 L 14,1" class="arrowMarkerPath" style="stroke-width: 2.5;"/></marker><marker id="my-svg_flowchart-v2-crossStart-margin" class="marker cross flowchart-v2" viewBox="0 0 15 15" refX="-3.5" refY="7.5" markerUnits="userSpaceOnUse" markerWidth="12" markerHeight="12" orient="auto"><path d="M 1,1 L 14,14 M 1,14 L 14,1" class="arrowMarkerPath" style="stroke-width: 2.5; stroke-dasharray: 1, 0;"/></marker><g class="root"><g class="clusters"/><g class="edgePaths"><path d="M219.093,100.938L223.176,100.854C227.259,100.771,235.426,100.604,243.009,100.521C250.593,100.438,257.593,100.438,261.093,100.438L264.593,100.438" id="my-svg-L_Start_Pub_0" class="edge-thickness-normal edge-pattern-solid edge-thickness-normal edge-pattern-solid flowchart-link" style=";" data-edge="true" data-et="edge" data-id="L_Start_Pub_0" data-points="W3sieCI6MjE5LjA5MjYzMTYyMDY0MjM4LCJ5IjoxMDAuOTM3NX0seyJ4IjoyNDMuNTkyNjM2MTA4Mzk4NDQsInkiOjEwMC40Mzc1fSx7IngiOjI2OC41OTI2MzYxMDgzOTg0NCwieSI6MTAwLjQzNzV9XQ==" data-look="classic" marker-end="url(#my-svg_flowchart-v2-pointEnd)"/><path d="M528.593,100.438L532.759,100.438C536.926,100.438,545.259,100.438,552.926,100.438C560.593,100.438,567.593,100.438,571.093,100.438L574.593,100.438" id="my-svg-L_Pub_Form_0" class="edge-thickness-normal edge-pattern-solid edge-thickness-normal edge-pattern-solid flowchart-link" style=";" data-edge="true" data-et="edge" data-id="L_Pub_Form_0" data-points="W3sieCI6NTI4LjU5MjYzNjEwODM5ODQsInkiOjEwMC40Mzc1fSx7IngiOjU1My41OTI2MzYxMDgzOTg0LCJ5IjoxMDAuNDM3NX0seyJ4Ijo1NzguNTkyNjM2MTA4Mzk4NCwieSI6MTAwLjQzNzV9XQ==" data-look="classic" marker-end="url(#my-svg_flowchart-v2-pointEnd)"/><path d="M838.593,100.438L842.759,100.438C846.926,100.438,855.259,100.438,862.926,100.438C870.593,100.438,877.593,100.438,881.093,100.438L884.593,100.438" id="my-svg-L_Form_Auto_0" class="edge-thickness-normal edge-pattern-solid edge-thickness-normal edge-pattern-solid flowchart-link" style=";" data-edge="true" data-et="edge" data-id="L_Form_Auto_0" data-points="W3sieCI6ODM4LjU5MjYzNjEwODM5ODQsInkiOjEwMC40Mzc1fSx7IngiOjg2My41OTI2MzYxMDgzOTg0LCJ5IjoxMDAuNDM3NX0seyJ4Ijo4ODguNTkyNjM2MTA4Mzk4NCwieSI6MTAwLjQzNzV9XQ==" data-look="classic" marker-end="url(#my-svg_flowchart-v2-pointEnd)"/><path d="M1063.27,90.24L1077.117,88.523C1090.965,86.806,1118.66,83.372,1143.992,82.834C1169.324,82.296,1192.293,84.655,1203.777,85.835L1215.262,87.014" id="my-svg-L_Auto_Save_0" class="edge-thickness-normal edge-pattern-solid edge-thickness-normal edge-pattern-solid flowchart-link" style=";" data-edge="true" data-et="edge" data-id="L_Auto_Save_0" data-points="W3sieCI6MTA2My4yNjk5OTQ2ODgyMDU1LCJ5Ijo5MC4yMzk4NTg1Nzk4MDcwMn0seyJ4IjoxMTQ2LjM1NDM1NDg1ODM5ODQsInkiOjc5LjkzNzV9LHsieCI6MTIxOS4yNDEwNzM2MDgzOTg0LCJ5Ijo4Ny40MjI4NjIzMjE2NzY2N31d" data-look="classic" marker-end="url(#my-svg_flowchart-v2-pointEnd)"/><path d="M1063.27,110.635L1077.117,112.352C1090.965,114.069,1118.66,117.503,1143.992,118.041C1169.324,118.579,1192.293,116.22,1203.777,115.04L1215.262,113.861" id="my-svg-L_Auto_Save_2" class="edge-thickness-normal edge-pattern-solid edge-thickness-normal edge-pattern-solid flowchart-link" style=";" data-edge="true" data-et="edge" data-id="L_Auto_Save_2" data-points="W3sieCI6MTA2My4yNjk5OTQ2ODgyMDU1LCJ5IjoxMTAuNjM1MTQxNDIwMTkyOTh9LHsieCI6MTE0Ni4zNTQzNTQ4NTgzOTg0LCJ5IjoxMjAuOTM3NX0seyJ4IjoxMjE5LjI0MTA3MzYwODM5ODQsInkiOjExMy40NTIxMzc2NzgzMjMzM31d" data-look="classic" marker-end="url(#my-svg_flowchart-v2-pointEnd)"/><path d="M1472.694,100.438L1476.861,100.438C1481.028,100.438,1489.361,100.438,1497.028,100.438C1504.694,100.438,1511.694,100.438,1515.194,100.438L1518.694,100.438" id="my-svg-L_Save_Submit_0" class="edge-thickness-normal edge-pattern-solid edge-thickness-normal edge-pattern-solid flowchart-link" style=";" data-edge="true" data-et="edge" data-id="L_Save_Submit_0" data-points="W3sieCI6MTQ3Mi42OTQxOTg2MDgzOTg0LCJ5IjoxMDAuNDM3NX0seyJ4IjoxNDk3LjY5NDE5ODYwODM5ODQsInkiOjEwMC40Mzc1fSx7IngiOjE1MjIuNjk0MTk4NjA4Mzk4NCwieSI6MTAwLjQzNzV9XQ==" data-look="classic" marker-end="url(#my-svg_flowchart-v2-pointEnd)"/><path d="M1770.913,100.438L1775.08,100.438C1779.246,100.438,1787.58,100.438,1795.246,100.438C1802.913,100.438,1809.913,100.438,1813.413,100.438L1816.913,100.438" id="my-svg-L_Submit_Valid_0" class="edge-thickness-normal edge-pattern-solid edge-thickness-normal edge-pattern-solid flowchart-link" style=";" data-edge="true" data-et="edge" data-id="L_Submit_Valid_0" data-points="W3sieCI6MTc3MC45MTI5NDg2MDgzOTg0LCJ5IjoxMDAuNDM3NX0seyJ4IjoxNzk1LjkxMjk0ODYwODM5ODQsInkiOjEwMC40Mzc1fSx7IngiOjE4MjAuOTEyOTQ4NjA4Mzk4NCwieSI6MTAwLjQzNzV9XQ==" data-look="classic" marker-end="url(#my-svg_flowchart-v2-pointEnd)"/><path d="M2030.929,100.438L2035.095,100.438C2039.262,100.438,2047.595,100.438,2055.262,100.438C2062.929,100.438,2069.929,100.438,2073.429,100.438L2076.929,100.438" id="my-svg-L_Valid_Ok_0" class="edge-thickness-normal edge-pattern-solid edge-thickness-normal edge-pattern-solid flowchart-link" style=";" data-edge="true" data-et="edge" data-id="L_Valid_Ok_0" data-points="W3sieCI6MjAzMC45Mjg1NzM2MDgzOTg0LCJ5IjoxMDAuNDM3NX0seyJ4IjoyMDU1LjkyODU3MzYwODM5ODQsInkiOjEwMC40Mzc1fSx7IngiOjIwODAuOTI4NTczNjA4Mzk4NCwieSI6MTAwLjQzNzV9XQ==" data-look="classic" marker-end="url(#my-svg_flowchart-v2-pointEnd)"/><path d="M2184.745,73.438L2192.575,68.271C2200.405,63.104,2216.065,52.771,2227.395,47.604C2238.725,42.438,2245.725,42.438,2249.225,42.438L2252.725,42.438" id="my-svg-L_Ok_Sidebar_0" class="edge-thickness-normal edge-pattern-solid edge-thickness-normal edge-pattern-solid flowchart-link" style=";" data-edge="true" data-et="edge" data-id="L_Ok_Sidebar_0" data-points="W3sieCI6MjE4NC43NDUyNDkyNTQ5NSwieSI6NzMuNDM3NX0seyJ4IjoyMjMxLjcyNTQ0ODYwODM5ODQsInkiOjQyLjQzNzV9LHsieCI6MjI1Ni43MjU0NDg2MDgzOTg0LCJ5Ijo0Mi40Mzc1fV0=" data-look="classic" marker-end="url(#my-svg_flowchart-v2-pointEnd)"/><path d="M2184.745,127.438L2192.575,132.604C2200.405,137.771,2216.065,148.104,2231.597,153.271C2247.129,158.438,2262.533,158.438,2270.235,158.438L2277.936,158.438" id="my-svg-L_Ok_Export_0" class="edge-thickness-normal edge-pattern-solid edge-thickness-normal edge-pattern-solid flowchart-link" style=";" data-edge="true" data-et="edge" data-id="L_Ok_Export_0" data-points="W3sieCI6MjE4NC43NDUyNDkyNTQ5NSwieSI6MTI3LjQzNzV9LHsieCI6MjIzMS43MjU0NDg2MDgzOTg0LCJ5IjoxNTguNDM3NX0seyJ4IjoyMjgxLjkzNjM4NjEwODM5ODQsInkiOjE1OC40Mzc1fV0=" data-look="classic" marker-end="url(#my-svg_flowchart-v2-pointEnd)"/></g><g class="edgeLabels"><g class="edgeLabel"><g class="label" data-id="L_Start_Pub_0" transform="translate(0, 0)"><text y="-10.1" text-anchor="middle"><tspan class="text-outer-tspan row" x="0" y="-0.1em" dy="1.1em" text-anchor="middle"/></text></g></g><g><rect class="background" style="stroke: none"/></g><g class="edgeLabel"><g class="label" data-id="L_Pub_Form_0" transform="translate(0, 0)"><text y="-10.1" text-anchor="middle"><tspan class="text-outer-tspan row" x="0" y="-0.1em" dy="1.1em" text-anchor="middle"/></text></g></g><g><rect class="background" style="stroke: none"/></g><g class="edgeLabel"><g class="label" data-id="L_Form_Auto_0" transform="translate(0, 0)"><text y="-10.1" text-anchor="middle"><tspan class="text-outer-tspan row" x="0" y="-0.1em" dy="1.1em" text-anchor="middle"/></text></g></g><g><rect class="background" style="stroke: none"/></g><g class="edgeLabel" transform="translate(1141.16878, 80.58051)"><g class="label" data-id="L_Auto_Save_0" transform="translate(-0.05078125, -10.5)"><g><rect class="background" style="" x="-47.8359375" y="0" width="95.7734375" height="21"/><text y="-10.1" text-anchor="middle" style=""><tspan class="text-outer-tspan row" x="0" y="-0.1em" dy="1.1em" text-anchor="middle"><tspan font-style="normal" class="text-inner-tspan" font-weight="normal">2с</tspan><tspan font-style="normal" class="text-inner-tspan" font-weight="normal"> задержка</tspan></tspan></text></g></g></g><g class="edgeLabel" transform="translate(1146.3543548583984, 120.9375)"><g class="label" data-id="L_Auto_Save_2" transform="translate(0, -10.5)"><g><rect class="background" style="" x="-34.28125" y="0" width="68.5625" height="21"/><text y="-10.1" text-anchor="middle" style=""><tspan class="text-outer-tspan row" x="0" y="-0.1em" dy="1.1em" text-anchor="middle"><tspan font-style="normal" class="text-inner-tspan" font-weight="normal">Вручную</tspan></tspan></text></g></g></g><g class="edgeLabel"><g class="label" data-id="L_Save_Submit_0" transform="translate(0, 0)"><text y="-10.1" text-anchor="middle"><tspan class="text-outer-tspan row" x="0" y="-0.1em" dy="1.1em" text-anchor="middle"/></text></g></g><g><rect class="background" style="stroke: none"/></g><g class="edgeLabel"><g class="label" data-id="L_Submit_Valid_0" transform="translate(0, 0)"><text y="-10.1" text-anchor="middle"><tspan class="text-outer-tspan row" x="0" y="-0.1em" dy="1.1em" text-anchor="middle"/></text></g></g><g><rect class="background" style="stroke: none"/></g><g class="edgeLabel"><g class="label" data-id="L_Valid_Ok_0" transform="translate(0, 0)"><text y="-10.1" text-anchor="middle"><tspan class="text-outer-tspan row" x="0" y="-0.1em" dy="1.1em" text-anchor="middle"/></text></g></g><g><rect class="background" style="stroke: none"/></g><g class="edgeLabel"><g class="label" data-id="L_Ok_Sidebar_0" transform="translate(0, 0)"><text y="-10.1" text-anchor="middle"><tspan class="text-outer-tspan row" x="0" y="-0.1em" dy="1.1em" text-anchor="middle"/></text></g></g><g><rect class="background" style="stroke: none"/></g><g class="edgeLabel"><g class="label" data-id="L_Ok_Export_0" transform="translate(0, 0)"><text y="-10.1" text-anchor="middle"><tspan class="text-outer-tspan row" x="0" y="-0.1em" dy="1.1em" text-anchor="middle"/></text></g></g><g><rect class="background" style="stroke: none"/></g></g><g class="nodes"><g class="node default" id="my-svg-flowchart-Start-0" data-look="classic" transform="translate(113.29631805419922, 100.4375)"><g class="basic label-container outer-path"><path d="M-73.8125 -31.5 C-29.34617765215792 -31.5, 15.12014469568416 -31.5, 73.8125 -31.5 C73.8125 -31.5, 73.8125 -31.5, 73.8125 -31.5 C74.44697495816064 -31.479653623022376, 75.08144991632129 -31.45930724604475, 75.83071192939245 -31.435279871635593 C76.38697210463103 -31.381618121531066, 76.9432322798696 -31.32795637142654, 77.84063059306193 -31.241385435432253 C78.61643702034048 -31.115959068738558, 79.39224344761902 -30.990532702044863, 79.83399680409322 -30.91911344521856 C80.34749536280825 -30.801910750083106, 80.86099392152327 -30.684708054947652, 81.80261939314947 -30.469788185729428 C82.30028527083248 -30.322083565534612, 82.7979511485155 -30.174378945339793, 83.73840886774406 -29.895256030836062 C84.44468885499435 -29.63533846674732, 85.15096884224464 -29.37542090265858, 85.63341065370028 -29.197877856399685 C86.18260840295706 -28.954764304176106, 86.73180615221385 -28.71165075195253, 87.47983778220308 -28.380519338926202 C87.93789995372762 -28.141548597444668, 88.39596212525217 -27.902577855963138, 89.27010288812403 -27.44653917988677 C89.81029854297161 -27.11906939937613, 90.3504941978192 -26.791599618865487, 90.99684938813228 -26.399775304092984 C91.364107087909 -26.143592231058328, 91.73136478768573 -25.88740915802367, 92.6529817104733 -25.244529088840633 C92.9795775605055 -24.984077589520528, 93.3061734105377 -24.72362609020042, 94.23169445219533 -23.985547688627737 C94.80769078245179 -23.462443061516588, 95.38368711270826 -22.939338434405443, 95.72650034400982 -22.62800452807842 C96.0610909329421 -22.282512274607623, 96.39568152187435 -21.937020021136824, 97.13125690787243 -21.177478043231485 C97.61153377084574 -20.613317511455353, 98.09181063381905 -20.049156979679218, 98.44019169774293 -19.63992875855011 C98.82719643526751 -19.121377667124076, 99.21420117279207 -18.602826575698046, 99.6479260198041 -18.02167479384835 C100.03244059900125 -17.430957143579736, 100.41695517819838 -16.840239493311124, 100.7494970346684 -16.329365901781543 C100.96238615905234 -15.951359704076403, 101.17527528343629 -15.573353506371262, 101.7403781507495 -14.56995614258631 C101.9211861161456 -14.194504533770589, 102.10199408154172 -13.81905292495487, 102.61649762499809 -12.750675308355413 C102.90519931607976 -12.037576549716192, 103.19390100716144 -11.324477791076973, 103.37425529456745 -10.878999214271206 C103.50190190955557 -10.494547947653187, 103.62954852454368 -10.110096681035166, 104.01053737065482 -8.962618978877531 C104.21123858056399 -8.197258281039243, 104.41193979047316 -7.431897583200955, 104.52272923372745 -7.009409419623907 C104.67678501512657 -6.218365541840366, 104.83084079652568 -5.427321664056824, 104.90872617755518 -5.027396693551458 C104.97519761252225 -4.511857370216317, 105.04166904748934 -3.9963180468811763, 105.16694205789975 -3.024725316091981 C105.19964330840808 -2.515376943450276, 105.23234455891642 -2.0060285708085708, 105.29631581032167 -1.0096246935071378 C105.29631581032167 -0.3909776747048268, 105.29631581032167 0.22766934409748418, 105.29631581032167 1.00962469350713 C105.26907144138862 1.4339777308981807, 105.24182707245556 1.8583307682892312, 105.16694205789975 3.02472531609196 C105.08247768350033 3.679814324556559, 104.99801330910091 4.334903333021158, 104.90872617755518 5.027396693551435 C104.79876426738426 5.592027861821154, 104.68880235721335 6.156659030090872, 104.52272923372745 7.0094094196239 C104.35557815050882 7.646828943674229, 104.1884270672902 8.284248467724558, 104.01053737065482 8.96261897887751 C103.82758215094404 9.513650950690748, 103.64462693123326 10.064682922503984, 103.37425529456746 10.878999214271184 C103.1641539729257 11.39795354075903, 102.95405265128394 11.916907867246875, 102.61649762499809 12.750675308355405 C102.35033670486472 13.30336415394375, 102.08417578473133 13.856052999532096, 101.7403781507495 14.569956142586303 C101.38904916215235 15.19377633775838, 101.03772017355519 15.817596532930457, 100.74949703466841 16.329365901781536 C100.41452407102123 16.84397432677891, 100.07955110737407 17.358582751776282, 99.64792601980412 18.021674793848334 C99.21902282268027 18.59636600410921, 98.79011962555641 19.171057214370084, 98.44019169774295 19.639928758550102 C97.98614466284862 20.173278241745173, 97.53209762795429 20.706627724940248, 97.13125690787246 21.177478043231467 C96.63638632317415 21.688472551563073, 96.14151573847585 22.19946705989468, 95.72650034400982 22.628004528078414 C95.21913874584169 23.088776907482437, 94.71177714767357 23.54954928688646, 94.23169445219536 23.985547688627715 C93.91163088918462 24.240789862879666, 93.59156732617389 24.496032037131613, 92.65298171047331 25.24452908884063 C92.07000365178286 25.651189345869675, 91.4870255930924 26.057849602898717, 90.99684938813229 26.399775304092973 C90.48290303828345 26.71133260165534, 89.96895668843462 27.022889899217706, 89.27010288812404 27.446539179886766 C88.56140409124181 27.81626688827698, 87.85270529435958 28.185994596667197, 87.47983778220309 28.3805193389262 C86.92060050133745 28.628077093980895, 86.3613632204718 28.875634849035592, 85.6334106537003 29.197877856399682 C84.94418054915944 29.45152090604396, 84.25495044461859 29.70516395568824, 83.73840886774407 29.895256030836055 C83.25473030258537 30.03880929009456, 82.77105173742667 30.182362549353062, 81.80261939314951 30.46978818572942 C81.0465722975407 30.642351001633756, 80.2905252019319 30.81491381753809, 79.83399680409323 30.919113445218557 C79.10699929264712 31.03664876491926, 78.38000178120102 31.154184084619963, 77.84063059306196 31.24138543543225 C77.16759899535788 31.30631198422384, 76.4945673976538 31.371238533015433, 75.83071192939245 31.435279871635593 C75.0554292543345 31.46014167802852, 74.28014657927655 31.485003484421448, 73.8125 31.5 C73.8125 31.5, 73.8125 31.5, 73.8125 31.5 C19.655557967845915 31.5, -34.50138406430817 31.5, -73.8125 31.5 C-74.50283516310438 31.47786229497512, -75.19317032620874 31.455724589950243, -75.83071192939244 31.435279871635593 C-76.43755539476801 31.37673841236686, -77.0443988601436 31.31819695309812, -77.84063059306195 31.24138543543225 C-78.2521818858163 31.174849014047666, -78.66373317857067 31.108312592663086, -79.83399680409323 30.919113445218557 C-80.43303439024744 30.78238702526443, -81.03207197640167 30.6456606053103, -81.80261939314947 30.469788185729428 C-82.44207208631944 30.280001982952264, -83.0815247794894 30.0902157801751, -83.73840886774403 29.89525603083607 C-84.15350695901309 29.742496096124363, -84.56860505028214 29.589736161412656, -85.63341065370028 29.197877856399685 C-86.12033704455446 28.982329987326725, -86.60726343540863 28.76678211825377, -87.47983778220308 28.380519338926206 C-87.85831707503439 28.183066934283662, -88.23679636786572 27.98561452964112, -89.27010288812403 27.446539179886773 C-89.67513967800126 27.20100349760282, -90.08017646787847 26.955467815318865, -90.99684938813226 26.399775304092994 C-91.39885712150199 26.119352111928567, -91.80086485487172 25.838928919764143, -92.6529817104733 25.244529088840636 C-93.14513871898144 24.852046971403418, -93.63729572748959 24.459564853966203, -94.23169445219533 23.98554768862774 C-94.73152064361616 23.531618766255672, -95.231346835037 23.077689843883604, -95.7265003440098 22.628004528078435 C-96.12464188623883 22.21689069769843, -96.52278342846786 21.805776867318432, -97.13125690787244 21.177478043231478 C-97.54331269138491 20.693453873279438, -97.95536847489737 20.2094297033274, -98.44019169774293 19.639928758550113 C-98.75104065751954 19.223419471372264, -99.06188961729616 18.806910184194418, -99.6479260198041 18.021674793848355 C-100.03215305657643 17.431398885960213, -100.41638009334875 16.84112297807207, -100.7494970346684 16.329365901781557 C-101.12314870043579 15.66590953287756, -101.49680036620319 15.002453163973563, -101.7403781507495 14.569956142586314 C-101.92254099960215 14.191691089283236, -102.10470384845479 13.813426035980159, -102.61649762499809 12.750675308355417 C-102.80477099023547 12.285636456201187, -102.99304435547286 11.820597604046956, -103.37425529456745 10.878999214271209 C-103.62074985533532 10.1365968708132, -103.86724441610318 9.39419452735519, -104.01053737065482 8.962618978877522 C-104.13727490670011 8.479313825541206, -104.26401244274541 7.9960086722048915, -104.52272923372743 7.009409419623911 C-104.65009480767945 6.3554141161038915, -104.77746038163147 5.701418812583871, -104.90872617755518 5.027396693551461 C-104.97624883554587 4.503704292032676, -105.04377149353655 3.9800118905138913, -105.16694205789975 3.024725316091999 C-105.19545479194909 2.5806164682088912, -105.22396752599842 2.136507620325783, -105.29631581032167 1.0096246935071416 C-105.29631581032167 0.4684915997023218, -105.29631581032167 -0.07264149410249798, -105.29631581032167 -1.0096246935071262 C-105.26048944125247 -1.5676493102844808, -105.22466307218328 -2.1256739270618352, -105.16694205789975 -3.024725316091956 C-105.06604720859701 -3.807245843342395, -104.9651523592943 -4.589766370592834, -104.90872617755518 -5.027396693551446 C-104.79235011559793 -5.624963175612558, -104.67597405364067 -6.22252965767367, -104.52272923372745 -7.009409419623896 C-104.36626729543251 -7.6060666013754865, -104.20980535713758 -8.202723783127077, -104.01053737065482 -8.962618978877506 C-103.79569555371938 -9.609688301092072, -103.58085373678395 -10.256757623306637, -103.37425529456746 -10.878999214271168 C-103.15690746430936 -11.415852557143122, -102.93955963405125 -11.952705900015076, -102.61649762499809 -12.750675308355401 C-102.39668538985624 -13.207120117855832, -102.1768731547144 -13.66356492735626, -101.7403781507495 -14.5699561425863 C-101.37442491865268 -15.219743162957256, -101.00847168655586 -15.86953018332821, -100.7494970346684 -16.329365901781546 C-100.40420180382091 -16.85983210111547, -100.05890657297341 -17.390298300449388, -99.64792601980412 -18.021674793848344 C-99.19061059388004 -18.63443580229423, -98.73329516795596 -19.247196810740114, -98.44019169774295 -19.639928758550102 C-98.10992452985934 -20.027879366680413, -97.77965736197574 -20.415829974810723, -97.13125690787246 -21.177478043231467 C-96.80253947173885 -21.51690578424283, -96.47382203560525 -21.856333525254193, -95.72650034400984 -22.628004528078403 C-95.18725355661945 -23.117734192698194, -94.64800676922908 -23.607463857317985, -94.23169445219536 -23.98554768862771 C-93.82345611486255 -24.311106898972227, -93.41521777752973 -24.636666109316742, -92.65298171047331 -25.244529088840626 C-92.09050200564293 -25.63689058157632, -91.52802230081255 -26.029252074312016, -90.9968493881323 -26.39977530409297 C-90.3732132206678 -26.77782721370287, -89.74957705320328 -27.155879123312776, -89.27010288812404 -27.446539179886763 C-88.9011124815001 -27.63904123867284, -88.53212207487616 -27.831543297458914, -87.47983778220309 -28.3805193389262 C-87.01730867148193 -28.585267255803878, -86.55477956076076 -28.790015172681553, -85.6334106537003 -29.19787785639968 C-84.88174781801057 -29.474496728228587, -84.13008498232082 -29.751115600057496, -83.73840886774407 -29.895256030836055 C-83.10949840094483 -30.081913356163664, -82.4805879341456 -30.26857068149127, -81.80261939314951 -30.469788185729417 C-81.03404735901368 -30.645209737119686, -80.26547532487784 -30.820631288509954, -79.83399680409325 -30.919113445218553 C-79.16408560267139 -31.02741949302548, -78.49417440124954 -31.135725540832407, -77.84063059306196 -31.24138543543225 C-77.22117819934375 -31.301143262853746, -76.60172580562555 -31.360901090275238, -75.83071192939246 -31.435279871635593 C-75.25215552191581 -31.45383304953164, -74.67359911443916 -31.472386227427684, -73.81250000000001 -31.5 C-73.81250000000001 -31.5, -73.8125 -31.5, -73.8125 -31.5" stroke="none" stroke-width="0" fill="#eee" style=""/><path d="M-73.8125 -31.5 C-35.39416913663389 -31.5, 3.024161726732217 -31.5, 73.8125 -31.5 M-73.8125 -31.5 C-28.307765037257532 -31.5, 17.196969925484936 -31.5, 73.8125 -31.5 M73.8125 -31.5 C73.8125 -31.5, 73.8125 -31.5, 73.8125 -31.5 M73.8125 -31.5 C73.8125 -31.5, 73.8125 -31.5, 73.8125 -31.5 M73.8125 -31.5 C74.54931731243096 -31.476371702918236, 75.28613462486192 -31.45274340583647, 75.83071192939245 -31.435279871635593 M73.8125 -31.5 C74.46420281213607 -31.479101159277366, 75.11590562427213 -31.458202318554733, 75.83071192939245 -31.435279871635593 M75.83071192939245 -31.435279871635593 C76.45432451967461 -31.375120715054944, 77.07793710995678 -31.31496155847429, 77.84063059306193 -31.241385435432253 M75.83071192939245 -31.435279871635593 C76.62149963486632 -31.35899353274989, 77.41228734034021 -31.282707193864187, 77.84063059306193 -31.241385435432253 M77.84063059306193 -31.241385435432253 C78.59531700629829 -31.119373588820743, 79.35000341953466 -30.997361742209232, 79.83399680409322 -30.91911344521856 M77.84063059306193 -31.241385435432253 C78.30622773494196 -31.16611130029285, 78.771824876822 -31.090837165153452, 79.83399680409322 -30.91911344521856 M79.83399680409322 -30.91911344521856 C80.34090123301691 -30.803415817177264, 80.84780566194058 -30.687718189135968, 81.80261939314947 -30.469788185729428 M79.83399680409322 -30.91911344521856 C80.26732401722943 -30.82020933654455, 80.70065123036564 -30.72130522787054, 81.80261939314947 -30.469788185729428 M81.80261939314947 -30.469788185729428 C82.35517747585425 -30.30579184721921, 82.90773555855904 -30.141795508708995, 83.73840886774406 -29.895256030836062 M81.80261939314947 -30.469788185729428 C82.35626971486087 -30.30546767641533, 82.90992003657226 -30.14114716710123, 83.73840886774406 -29.895256030836062 M83.73840886774406 -29.895256030836062 C84.16450303369736 -29.738449438993953, 84.59059719965067 -29.58164284715184, 85.63341065370028 -29.197877856399685 M83.73840886774406 -29.895256030836062 C84.25217339766272 -29.706185934638743, 84.76593792758136 -29.517115838441423, 85.63341065370028 -29.197877856399685 M85.63341065370028 -29.197877856399685 C86.33268273226591 -28.888330850387888, 87.03195481083154 -28.57878384437609, 87.47983778220308 -28.380519338926202 M85.63341065370028 -29.197877856399685 C86.11373063159795 -28.98525445037029, 86.59405060949562 -28.7726310443409, 87.47983778220308 -28.380519338926202 M87.47983778220308 -28.380519338926202 C88.17964248765875 -28.015431672336284, 88.87944719311443 -27.650344005746366, 89.27010288812403 -27.44653917988677 M87.47983778220308 -28.380519338926202 C88.13537753096193 -28.038524671891953, 88.7909172797208 -27.696530004857703, 89.27010288812403 -27.44653917988677 M89.27010288812403 -27.44653917988677 C89.8998604334379 -27.064776455051376, 90.52961797875177 -26.683013730215983, 90.99684938813228 -26.399775304092984 M89.27010288812403 -27.44653917988677 C89.84999161759191 -27.095007224278906, 90.4298803470598 -26.743475268671038, 90.99684938813228 -26.399775304092984 M90.99684938813228 -26.399775304092984 C91.55221312928359 -26.01237759957471, 92.10757687043488 -25.624979895056434, 92.6529817104733 -25.244529088840633 M90.99684938813228 -26.399775304092984 C91.49018539315865 -26.05564546315804, 91.98352139818503 -25.711515622223093, 92.6529817104733 -25.244529088840633 M92.6529817104733 -25.244529088840633 C93.24936290035038 -24.768930960283633, 93.84574409022747 -24.293332831726637, 94.23169445219533 -23.985547688627737 M92.6529817104733 -25.244529088840633 C92.97629241706964 -24.986697403989282, 93.29960312366599 -24.728865719137932, 94.23169445219533 -23.985547688627737 M94.23169445219533 -23.985547688627737 C94.77673166305837 -23.490559314616277, 95.32176887392141 -22.99557094060482, 95.72650034400982 -22.62800452807842 M94.23169445219533 -23.985547688627737 C94.53841556232832 -23.70699169180081, 94.84513667246134 -23.42843569497388, 95.72650034400982 -22.62800452807842 M95.72650034400982 -22.62800452807842 C96.03434892402313 -22.310125594376203, 96.34219750403645 -21.992246660673985, 97.13125690787243 -21.177478043231485 M95.72650034400982 -22.62800452807842 C96.04577758265908 -22.298324566024263, 96.36505482130835 -21.96864460397011, 97.13125690787243 -21.177478043231485 M97.13125690787243 -21.177478043231485 C97.56613165572482 -20.66664941932991, 98.00100640357722 -20.155820795428337, 98.44019169774293 -19.63992875855011 M97.13125690787243 -21.177478043231485 C97.40093114284703 -20.86070334193165, 97.67060537782163 -20.543928640631815, 98.44019169774293 -19.63992875855011 M98.44019169774293 -19.63992875855011 C98.85234205022307 -19.087684833896255, 99.26449240270323 -18.5354409092424, 99.6479260198041 -18.02167479384835 M98.44019169774293 -19.63992875855011 C98.82191950019035 -19.12844827938878, 99.20364730263778 -18.616967800227453, 99.6479260198041 -18.02167479384835 M99.6479260198041 -18.02167479384835 C100.0554532943713 -17.39560346371738, 100.46298056893849 -16.769532133586402, 100.7494970346684 -16.329365901781543 M99.6479260198041 -18.02167479384835 C100.01365773011678 -17.459812674092777, 100.37938944042946 -16.897950554337203, 100.7494970346684 -16.329365901781543 M100.7494970346684 -16.329365901781543 C101.0683411088045 -15.76322596168937, 101.3871851829406 -15.197086021597197, 101.7403781507495 -14.56995614258631 M100.7494970346684 -16.329365901781543 C101.0908136602578 -15.723323670991448, 101.4321302858472 -15.117281440201351, 101.7403781507495 -14.56995614258631 M101.7403781507495 -14.56995614258631 C101.94076754345511 -14.15384328098698, 102.14115693616071 -13.73773041938765, 102.61649762499809 -12.750675308355413 M101.7403781507495 -14.56995614258631 C102.0493684843738 -13.928331103481446, 102.35835881799808 -13.286706064376581, 102.61649762499809 -12.750675308355413 M102.61649762499809 -12.750675308355413 C102.82921893369331 -12.225249563191497, 103.04194024238853 -11.699823818027582, 103.37425529456745 -10.878999214271206 M102.61649762499809 -12.750675308355413 C102.79442405728503 -12.311193580633125, 102.97235048957197 -11.871711852910837, 103.37425529456745 -10.878999214271206 M103.37425529456745 -10.878999214271206 C103.58127086056106 -10.255501312949631, 103.78828642655469 -9.632003411628059, 104.01053737065482 -8.962618978877531 M103.37425529456745 -10.878999214271206 C103.62600548060321 -10.12076776487648, 103.87775566663896 -9.362536315481755, 104.01053737065482 -8.962618978877531 M104.01053737065482 -8.962618978877531 C104.20708563133502 -8.213095276348875, 104.40363389201522 -7.463571573820219, 104.52272923372745 -7.009409419623907 M104.01053737065482 -8.962618978877531 C104.1374621619096 -8.47859974027057, 104.26438695316436 -7.994580501663609, 104.52272923372745 -7.009409419623907 M104.52272923372745 -7.009409419623907 C104.60724523025127 -6.575437639936276, 104.69176122677509 -6.141465860248646, 104.90872617755518 -5.027396693551458 M104.52272923372745 -7.009409419623907 C104.63692693823157 -6.4230283426886015, 104.7511246427357 -5.836647265753296, 104.90872617755518 -5.027396693551458 M104.90872617755518 -5.027396693551458 C104.96994850144162 -4.552568439203546, 105.03117082532805 -4.077740184855635, 105.16694205789975 -3.024725316091981 M104.90872617755518 -5.027396693551458 C105.01065753458943 -4.236837217017013, 105.11258889162366 -3.4462777404825684, 105.16694205789975 -3.024725316091981 M105.16694205789975 -3.024725316091981 C105.21202635597861 -2.3225009821232456, 105.25711065405748 -1.6202766481545097, 105.29631581032167 -1.0096246935071378 M105.16694205789975 -3.024725316091981 C105.21168365478071 -2.327838829903952, 105.25642525166168 -1.6309523437159232, 105.29631581032167 -1.0096246935071378 M105.29631581032167 -1.0096246935071378 C105.29631581032167 -0.5838433173966151, 105.29631581032167 -0.15806194128609252, 105.29631581032167 1.00962469350713 M105.29631581032167 -1.0096246935071378 C105.29631581032167 -0.22888408937839155, 105.29631581032167 0.5518565147503547, 105.29631581032167 1.00962469350713 M105.29631581032167 1.00962469350713 C105.26282586610753 1.5312576072386679, 105.22933592189341 2.052890520970206, 105.16694205789975 3.02472531609196 M105.29631581032167 1.00962469350713 C105.25997008252723 1.5757387416489617, 105.22362435473279 2.1418527897907933, 105.16694205789975 3.02472531609196 M105.16694205789975 3.02472531609196 C105.0639594737951 3.8234379021962583, 104.96097688969044 4.622150488300557, 104.90872617755518 5.027396693551435 M105.16694205789975 3.02472531609196 C105.09777473414306 3.5611734205159022, 105.02860741038636 4.097621524939845, 104.90872617755518 5.027396693551435 M104.90872617755518 5.027396693551435 C104.82073501087164 5.4792127375317445, 104.73274384418811 5.931028781512054, 104.52272923372745 7.0094094196239 M104.90872617755518 5.027396693551435 C104.79322753907265 5.620457791513387, 104.67772890059011 6.213518889475338, 104.52272923372745 7.0094094196239 M104.52272923372745 7.0094094196239 C104.38337115988413 7.540842153359732, 104.24401308604081 8.072274887095563, 104.01053737065482 8.96261897887751 M104.52272923372745 7.0094094196239 C104.37544666947842 7.571061669772541, 104.22816410522941 8.132713919921182, 104.01053737065482 8.96261897887751 M104.01053737065482 8.96261897887751 C103.76678556200643 9.696760589949836, 103.52303375335806 10.43090220102216, 103.37425529456746 10.878999214271184 M104.01053737065482 8.96261897887751 C103.78139611194464 9.652755941410962, 103.55225485323447 10.342892903944415, 103.37425529456746 10.878999214271184 M103.37425529456746 10.878999214271184 C103.08088135907516 11.60363850693633, 102.78750742358287 12.328277799601475, 102.61649762499809 12.750675308355405 M103.37425529456746 10.878999214271184 C103.09161452779983 11.577127372674681, 102.80897376103222 12.275255531078178, 102.61649762499809 12.750675308355405 M102.61649762499809 12.750675308355405 C102.4009444903341 13.19827600458343, 102.1853913556701 13.645876700811456, 101.7403781507495 14.569956142586303 M102.61649762499809 12.750675308355405 C102.37650094695938 13.249033545409072, 102.13650426892067 13.74739178246274, 101.7403781507495 14.569956142586303 M101.7403781507495 14.569956142586303 C101.37161114205854 15.224739308225947, 101.00284413336757 15.879522473865592, 100.74949703466841 16.329365901781536 M101.7403781507495 14.569956142586303 C101.40883843805203 15.158638474517023, 101.07729872535454 15.747320806447743, 100.74949703466841 16.329365901781536 M100.74949703466841 16.329365901781536 C100.38473607411953 16.889736689217095, 100.01997511357065 17.450107476652654, 99.64792601980412 18.021674793848334 M100.74949703466841 16.329365901781536 C100.31969715404571 16.989653935845915, 99.889897273423 17.649941969910294, 99.64792601980412 18.021674793848334 M99.64792601980412 18.021674793848334 C99.38629856774318 18.372231744858787, 99.12467111568223 18.72278869586924, 98.44019169774295 19.639928758550102 M99.64792601980412 18.021674793848334 C99.17465012302101 18.655821379216526, 98.70137422623789 19.289967964584715, 98.44019169774295 19.639928758550102 M98.44019169774295 19.639928758550102 C98.14678251324696 19.984583882114656, 97.85337332875096 20.329239005679206, 97.13125690787246 21.177478043231467 M98.44019169774295 19.639928758550102 C98.04394545332373 20.10538214429495, 97.64769920890451 20.570835530039794, 97.13125690787246 21.177478043231467 M97.13125690787246 21.177478043231467 C96.78177260571543 21.538349278403416, 96.43228830355841 21.899220513575365, 95.72650034400982 22.628004528078414 M97.13125690787246 21.177478043231467 C96.8255936073967 21.49310049639636, 96.51993030692095 21.80872294956125, 95.72650034400982 22.628004528078414 M95.72650034400982 22.628004528078414 C95.1986159059372 23.107415207679104, 94.6707314678646 23.586825887279794, 94.23169445219536 23.985547688627715 M95.72650034400982 22.628004528078414 C95.37273746790362 22.949282612105282, 95.01897459179742 23.27056069613215, 94.23169445219536 23.985547688627715 M94.23169445219536 23.985547688627715 C93.88075784689002 24.26541029254345, 93.52982124158468 24.545272896459185, 92.65298171047331 25.24452908884063 M94.23169445219536 23.985547688627715 C93.72390414260433 24.390496947658917, 93.2161138330133 24.795446206690123, 92.65298171047331 25.24452908884063 M92.65298171047331 25.24452908884063 C92.23978035410002 25.532760467848213, 91.82657899772671 25.820991846855797, 90.99684938813229 26.399775304092973 M92.65298171047331 25.24452908884063 C92.1885851711296 25.568472011284626, 91.72418863178588 25.89241493372862, 90.99684938813229 26.399775304092973 M90.99684938813229 26.399775304092973 C90.6380735760663 26.617267309768074, 90.27929776400033 26.834759315443172, 89.27010288812404 27.446539179886766 M90.99684938813229 26.399775304092973 C90.47891527017774 26.71375001011575, 89.96098115222318 27.027724716138525, 89.27010288812404 27.446539179886766 M89.27010288812404 27.446539179886766 C88.88657718651756 27.646624292754936, 88.50305148491105 27.84670940562311, 87.47983778220309 28.3805193389262 M89.27010288812404 27.446539179886766 C88.69193554989971 27.748168709904547, 88.11376821167538 28.04979823992233, 87.47983778220309 28.3805193389262 M87.47983778220309 28.3805193389262 C86.80762889939064 28.678086270979247, 86.13542001657818 28.97565320303229, 85.6334106537003 29.197877856399682 M87.47983778220309 28.3805193389262 C86.76354285158432 28.69760185657696, 86.04724792096555 29.01468437422772, 85.6334106537003 29.197877856399682 M85.6334106537003 29.197877856399682 C85.23427334146378 29.34476407688759, 84.83513602922727 29.491650297375493, 83.73840886774407 29.895256030836055 M85.6334106537003 29.197877856399682 C85.23324762364199 29.34514155052764, 84.83308459358368 29.4924052446556, 83.73840886774407 29.895256030836055 M83.73840886774407 29.895256030836055 C83.1007470501671 30.084510711137717, 82.46308523259013 30.273765391439383, 81.80261939314951 30.46978818572942 M83.73840886774407 29.895256030836055 C82.9661538338273 30.124457271253156, 82.19389879991056 30.35365851167026, 81.80261939314951 30.46978818572942 M81.80261939314951 30.46978818572942 C81.25653936916375 30.59442738769899, 80.71045934517798 30.719066589668557, 79.83399680409323 30.919113445218557 M81.80261939314951 30.46978818572942 C81.01766436034812 30.648949049656043, 80.23270932754674 30.828109913582665, 79.83399680409323 30.919113445218557 M79.83399680409323 30.919113445218557 C79.13782401555714 31.031665262768463, 78.44165122702104 31.144217080318374, 77.84063059306196 31.24138543543225 M79.83399680409323 30.919113445218557 C79.22090345254304 31.01823362368724, 78.60781010099284 31.117353802155925, 77.84063059306196 31.24138543543225 M77.84063059306196 31.24138543543225 C77.30091239549145 31.293451400845775, 76.76119419792094 31.3455173662593, 75.83071192939245 31.435279871635593 M77.84063059306196 31.24138543543225 C77.15462033234125 31.30756402023593, 76.46861007162056 31.373742605039606, 75.83071192939245 31.435279871635593 M75.83071192939245 31.435279871635593 C75.23050036279739 31.454527488335355, 74.63028879620231 31.47377510503512, 73.8125 31.5 M75.83071192939245 31.435279871635593 C75.27303138042686 31.453163601381583, 74.71535083146127 31.471047331127572, 73.8125 31.5 M73.8125 31.5 C73.8125 31.5, 73.8125 31.5, 73.8125 31.5 M73.8125 31.5 C73.8125 31.5, 73.8125 31.5, 73.8125 31.5 M73.8125 31.5 C16.53603193589675 31.5, -40.7404361282065 31.5, -73.8125 31.5 M73.8125 31.5 C39.680522911673975 31.5, 5.5485458233479505 31.5, -73.8125 31.5 M-73.8125 31.5 C-74.28623682334592 31.484808182148083, -74.75997364669182 31.46961636429617, -75.83071192939244 31.435279871635593 M-73.8125 31.5 C-74.22167162256439 31.48687866246861, -74.63084324512877 31.473757324937218, -75.83071192939244 31.435279871635593 M-75.83071192939244 31.435279871635593 C-76.35914414169169 31.3843026516478, -76.88757635399094 31.33332543166001, -77.84063059306195 31.24138543543225 M-75.83071192939244 31.435279871635593 C-76.24799851794883 31.395024736298105, -76.66528510650522 31.35476960096062, -77.84063059306195 31.24138543543225 M-77.84063059306195 31.24138543543225 C-78.31294443352456 31.165025396554793, -78.78525827398717 31.088665357677336, -79.83399680409323 30.919113445218557 M-77.84063059306195 31.24138543543225 C-78.28933918922971 31.16884170939098, -78.73804778539748 31.096297983349707, -79.83399680409323 30.919113445218557 M-79.83399680409323 30.919113445218557 C-80.5114988351277 30.76447802774887, -81.18900086616215 30.60984261027918, -81.80261939314947 30.469788185729428 M-79.83399680409323 30.919113445218557 C-80.53309985848539 30.759547735127324, -81.23220291287754 30.599982025036095, -81.80261939314947 30.469788185729428 M-81.80261939314947 30.469788185729428 C-82.39269678177098 30.294656314165984, -82.98277417039249 30.11952444260254, -83.73840886774403 29.89525603083607 M-81.80261939314947 30.469788185729428 C-82.38131624976333 30.298033996328222, -82.96001310637719 30.126279806927016, -83.73840886774403 29.89525603083607 M-83.73840886774403 29.89525603083607 C-84.48385387942274 29.62092537572015, -85.22929889110146 29.346594720604234, -85.63341065370028 29.197877856399685 M-83.73840886774403 29.89525603083607 C-84.32848506189579 29.678102536783676, -84.91856125604755 29.46094904273128, -85.63341065370028 29.197877856399685 M-85.63341065370028 29.197877856399685 C-86.3702207862561 28.87171386741324, -87.1070309188119 28.545549878426797, -87.47983778220308 28.380519338926206 M-85.63341065370028 29.197877856399685 C-86.12110464882714 28.981990191685384, -86.60879864395399 28.76610252697108, -87.47983778220308 28.380519338926206 M-87.47983778220308 28.380519338926206 C-88.19275838919255 28.00858911490724, -88.90567899618202 27.636658890888278, -89.27010288812403 27.446539179886773 M-87.47983778220308 28.380519338926206 C-87.98212235969211 28.1184777965788, -88.48440693718116 27.856436254231394, -89.27010288812403 27.446539179886773 M-89.27010288812403 27.446539179886773 C-89.95379925085406 27.032078426954026, -90.6374956135841 26.617617674021275, -90.99684938813226 26.399775304092994 M-89.27010288812403 27.446539179886773 C-89.63197725690391 27.227168810922567, -89.99385162568379 27.007798441958364, -90.99684938813226 26.399775304092994 M-90.99684938813226 26.399775304092994 C-91.52701138784515 26.02995724343636, -92.05717338755804 25.660139182779723, -92.6529817104733 25.244529088840636 M-90.99684938813226 26.399775304092994 C-91.44587966140284 26.086551223666675, -91.89490993467344 25.77332714324036, -92.6529817104733 25.244529088840636 M-92.6529817104733 25.244529088840636 C-93.18831807163511 24.817612586712947, -93.72365443279693 24.39069608458526, -94.23169445219533 23.98554768862774 M-92.6529817104733 25.244529088840636 C-93.26979233167943 24.752639032448727, -93.88660295288555 24.260748976056817, -94.23169445219533 23.98554768862774 M-94.23169445219533 23.98554768862774 C-94.54919727624183 23.697200024493096, -94.86670010028831 23.408852360358452, -95.7265003440098 22.628004528078435 M-94.23169445219533 23.98554768862774 C-94.74825863128231 23.51641776872016, -95.2648228103693 23.04728784881258, -95.7265003440098 22.628004528078435 M-95.7265003440098 22.628004528078435 C-96.00927262742115 22.336018929419986, -96.29204491083252 22.04403333076154, -97.13125690787244 21.177478043231478 M-95.7265003440098 22.628004528078435 C-96.02595383535434 22.318794212676327, -96.3254073266989 22.00958389727422, -97.13125690787244 21.177478043231478 M-97.13125690787244 21.177478043231478 C-97.62649474287235 20.595743502409462, -98.12173257787228 20.014008961587447, -98.44019169774293 19.639928758550113 M-97.13125690787244 21.177478043231478 C-97.55194841833969 20.683309857011558, -97.97263992880696 20.189141670791642, -98.44019169774293 19.639928758550113 M-98.44019169774293 19.639928758550113 C-98.91492971654652 19.00382306287655, -99.3896677353501 18.367717367202985, -99.6479260198041 18.021674793848355 M-98.44019169774293 19.639928758550113 C-98.88213813709656 19.04776079196514, -99.3240845764502 18.45559282538017, -99.6479260198041 18.021674793848355 M-99.6479260198041 18.021674793848355 C-99.94578229533529 17.56408756902344, -100.24363857086647 17.10650034419852, -100.7494970346684 16.329365901781557 M-99.6479260198041 18.021674793848355 C-99.86982266137281 17.680781964807522, -100.0917193029415 17.33988913576669, -100.7494970346684 16.329365901781557 M-100.7494970346684 16.329365901781557 C-100.99305030213566 15.89691241295079, -101.23660356960293 15.464458924120024, -101.7403781507495 14.569956142586314 M-100.7494970346684 16.329365901781557 C-100.95439381607919 15.965550918337732, -101.15929059748998 15.601735934893906, -101.7403781507495 14.569956142586314 M-101.7403781507495 14.569956142586314 C-101.96171880022958 14.110337548009744, -102.18305944970963 13.650718953433174, -102.61649762499809 12.750675308355417 M-101.7403781507495 14.569956142586314 C-101.92476341725177 14.187076191481673, -102.10914868375403 13.804196240377031, -102.61649762499809 12.750675308355417 M-102.61649762499809 12.750675308355417 C-102.80702405400916 12.280071345120144, -102.99755048302025 11.80946738188487, -103.37425529456745 10.878999214271209 M-102.61649762499809 12.750675308355417 C-102.86660219347044 12.132912188785838, -103.11670676194278 11.515149069216259, -103.37425529456745 10.878999214271209 M-103.37425529456745 10.878999214271209 C-103.5968269008653 10.208648998071743, -103.81939850716313 9.538298781872276, -104.01053737065482 8.962618978877522 M-103.37425529456745 10.878999214271209 C-103.57956122351686 10.26065046733309, -103.78486715246629 9.642301720394968, -104.01053737065482 8.962618978877522 M-104.01053737065482 8.962618978877522 C-104.20984833003915 8.202559908828805, -104.40915928942349 7.44250083878009, -104.52272923372743 7.009409419623911 M-104.01053737065482 8.962618978877522 C-104.19835688010018 8.246381787872018, -104.38617638954554 7.5301445968665135, -104.52272923372743 7.009409419623911 M-104.52272923372743 7.009409419623911 C-104.66987590534907 6.2538423603068845, -104.81702257697071 5.498275300989857, -104.90872617755518 5.027396693551461 M-104.52272923372743 7.009409419623911 C-104.67589040041558 6.222959199304362, -104.82905156710372 5.436508978984811, -104.90872617755518 5.027396693551461 M-104.90872617755518 5.027396693551461 C-104.97543695327495 4.510001090601639, -105.04214772899472 3.9926054876518178, -105.16694205789975 3.024725316091999 M-104.90872617755518 5.027396693551461 C-104.96802900544087 4.567455671138051, -105.02733183332654 4.10751464872464, -105.16694205789975 3.024725316091999 M-105.16694205789975 3.024725316091999 C-105.2180135289717 2.2292459299969742, -105.26908500004365 1.4337665439019498, -105.29631581032167 1.0096246935071416 M-105.16694205789975 3.024725316091999 C-105.2010437763633 2.493563524610369, -105.23514549482687 1.9624017331287391, -105.29631581032167 1.0096246935071416 M-105.29631581032167 1.0096246935071416 C-105.29631581032167 0.410804469205028, -105.29631581032167 -0.18801575509708557, -105.29631581032167 -1.0096246935071262 M-105.29631581032167 1.0096246935071416 C-105.29631581032167 0.5454292819642285, -105.29631581032167 0.08123387042131536, -105.29631581032167 -1.0096246935071262 M-105.29631581032167 -1.0096246935071262 C-105.25224309215221 -1.6960928538543159, -105.20817037398274 -2.3825610142015057, -105.16694205789975 -3.024725316091956 M-105.29631581032167 -1.0096246935071262 C-105.2571510655189 -1.619647207023362, -105.21798632071612 -2.229669720539598, -105.16694205789975 -3.024725316091956 M-105.16694205789975 -3.024725316091956 C-105.1083047319616 -3.4795048368185215, -105.04966740602345 -3.9342843575450877, -104.90872617755518 -5.027396693551446 M-105.16694205789975 -3.024725316091956 C-105.07810064537074 -3.7137617679457464, -104.98925923284172 -4.4027982197995374, -104.90872617755518 -5.027396693551446 M-104.90872617755518 -5.027396693551446 C-104.7698377489364 -5.740559420429132, -104.63094932031761 -6.453722147306817, -104.52272923372745 -7.009409419623896 M-104.90872617755518 -5.027396693551446 C-104.79039446655672 -5.635005020112551, -104.67206275555827 -6.2426133466736555, -104.52272923372745 -7.009409419623896 M-104.52272923372745 -7.009409419623896 C-104.40311786361482 -7.465539413759049, -104.2835064935022 -7.9216694078942025, -104.01053737065482 -8.962618978877506 M-104.52272923372745 -7.009409419623896 C-104.32594905445087 -7.759817528274678, -104.12916887517429 -8.51022563692546, -104.01053737065482 -8.962618978877506 M-104.01053737065482 -8.962618978877506 C-103.8248045375432 -9.52201667970148, -103.63907170443159 -10.081414380525452, -103.37425529456746 -10.878999214271168 M-104.01053737065482 -8.962618978877506 C-103.86370693559248 -9.40484885503245, -103.71687650053013 -9.847078731187393, -103.37425529456746 -10.878999214271168 M-103.37425529456746 -10.878999214271168 C-103.15032585418108 -11.432109261406758, -102.92639641379468 -11.985219308542346, -102.61649762499809 -12.750675308355401 M-103.37425529456746 -10.878999214271168 C-103.11175313114327 -11.52738463306298, -102.84925096771909 -12.17577005185479, -102.61649762499809 -12.750675308355401 M-102.61649762499809 -12.750675308355401 C-102.27549635766374 -13.458771736233464, -101.93449509032939 -14.166868164111527, -101.7403781507495 -14.5699561425863 M-102.61649762499809 -12.750675308355401 C-102.29778730410695 -13.412484108994288, -101.97907698321582 -14.074292909633174, -101.7403781507495 -14.5699561425863 M-101.7403781507495 -14.5699561425863 C-101.37432330585601 -15.219923586767154, -101.00826846096253 -15.869891030948008, -100.7494970346684 -16.329365901781546 M-101.7403781507495 -14.5699561425863 C-101.38994455387602 -15.192186479084752, -101.03951095700252 -15.814416815583206, -100.7494970346684 -16.329365901781546 M-100.7494970346684 -16.329365901781546 C-100.49341178409755 -16.722781615176654, -100.2373265335267 -17.11619732857176, -99.64792601980412 -18.021674793848344 M-100.7494970346684 -16.329365901781546 C-100.36784696360671 -16.915682898325972, -99.98619689254502 -17.501999894870398, -99.64792601980412 -18.021674793848344 M-99.64792601980412 -18.021674793848344 C-99.3655723222082 -18.40000302567586, -99.08321862461227 -18.778331257503375, -98.44019169774295 -19.639928758550102 M-99.64792601980412 -18.021674793848344 C-99.25809767366488 -18.544009263581987, -98.86826932752565 -19.06634373331563, -98.44019169774295 -19.639928758550102 M-98.44019169774295 -19.639928758550102 C-98.13619075761582 -19.997025560966957, -97.83218981748868 -20.354122363383812, -97.13125690787246 -21.177478043231467 M-98.44019169774295 -19.639928758550102 C-98.10601329935024 -20.032473720591717, -97.77183490095754 -20.425018682633336, -97.13125690787246 -21.177478043231467 M-97.13125690787246 -21.177478043231467 C-96.64172155346806 -21.682963488254067, -96.15218619906365 -22.188448933276668, -95.72650034400984 -22.628004528078403 M-97.13125690787246 -21.177478043231467 C-96.71761350910552 -21.604598813212945, -96.3039701103386 -22.031719583194423, -95.72650034400984 -22.628004528078403 M-95.72650034400984 -22.628004528078403 C-95.41260967034866 -22.913071732805367, -95.09871899668748 -23.198138937532327, -94.23169445219536 -23.98554768862771 M-95.72650034400984 -22.628004528078403 C-95.39461798383425 -22.929411306463813, -95.06273562365865 -23.230818084849222, -94.23169445219536 -23.98554768862771 M-94.23169445219536 -23.98554768862771 C-93.67605573492973 -24.428654779479803, -93.12041701766411 -24.87176187033189, -92.65298171047331 -25.244529088840626 M-94.23169445219536 -23.98554768862771 C-93.90374821137189 -24.247076088668447, -93.57580197054843 -24.50860448870918, -92.65298171047331 -25.244529088840626 M-92.65298171047331 -25.244529088840626 C-92.11591565984739 -25.619163116542648, -91.57884960922148 -25.99379714424467, -90.9968493881323 -26.39977530409297 M-92.65298171047331 -25.244529088840626 C-92.27809232436988 -25.506035695886418, -91.90320293826645 -25.767542302932206, -90.9968493881323 -26.39977530409297 M-90.9968493881323 -26.39977530409297 C-90.31055697058902 -26.815809800709616, -89.62426455304575 -27.231844297326266, -89.27010288812404 -27.446539179886763 M-90.9968493881323 -26.39977530409297 C-90.52236950207198 -26.687407799376047, -90.04788961601167 -26.975040294659124, -89.27010288812404 -27.446539179886763 M-89.27010288812404 -27.446539179886763 C-88.85040333658056 -27.665496167096606, -88.43070378503707 -27.884453154306453, -87.47983778220309 -28.3805193389262 M-89.27010288812404 -27.446539179886763 C-88.56041521204874 -27.816782785918598, -87.85072753597343 -28.187026391950436, -87.47983778220309 -28.3805193389262 M-87.47983778220309 -28.3805193389262 C-87.04048371271854 -28.5750083525116, -86.60112964323399 -28.769497366097003, -85.6334106537003 -29.19787785639968 M-87.47983778220309 -28.3805193389262 C-87.04978916986819 -28.570889102668026, -86.6197405575333 -28.76125886640985, -85.6334106537003 -29.19787785639968 M-85.6334106537003 -29.19787785639968 C-84.9414901227673 -29.452511007826292, -84.24956959183432 -29.70714415925291, -83.73840886774407 -29.895256030836055 M-85.6334106537003 -29.19787785639968 C-85.19398127124425 -29.359591931184184, -84.75455188878821 -29.521306005968693, -83.73840886774407 -29.895256030836055 M-83.73840886774407 -29.895256030836055 C-83.23673673290105 -30.04414968712669, -82.73506459805803 -30.193043343417326, -81.80261939314951 -30.469788185729417 M-83.73840886774407 -29.895256030836055 C-83.24760506028332 -30.040924024608646, -82.75680125282258 -30.186592018381237, -81.80261939314951 -30.469788185729417 M-81.80261939314951 -30.469788185729417 C-81.35089909434741 -30.572890396180565, -80.89917879554531 -30.675992606631716, -79.83399680409325 -30.919113445218553 M-81.80261939314951 -30.469788185729417 C-81.35242333222192 -30.57254249883229, -80.90222727129432 -30.675296811935166, -79.83399680409325 -30.919113445218553 M-79.83399680409325 -30.919113445218553 C-79.07458177975083 -31.041889777002766, -78.3151667554084 -31.164666108786978, -77.84063059306196 -31.24138543543225 M-79.83399680409325 -30.919113445218553 C-79.16822266515675 -31.02675064484625, -78.50244852622023 -31.134387844473945, -77.84063059306196 -31.24138543543225 M-77.84063059306196 -31.24138543543225 C-77.42116512172227 -31.281850764971352, -77.00169965038256 -31.322316094510455, -75.83071192939246 -31.435279871635593 M-77.84063059306196 -31.24138543543225 C-77.1033503370399 -31.31250997502146, -76.36607008101784 -31.383634514610673, -75.83071192939246 -31.435279871635593 M-75.83071192939246 -31.435279871635593 C-75.29540193821663 -31.452446221134913, -74.7600919470408 -31.469612570634236, -73.81250000000001 -31.5 M-75.83071192939246 -31.435279871635593 C-75.26848702138855 -31.45330933013088, -74.70626211338464 -31.471338788626174, -73.81250000000001 -31.5 M-73.81250000000001 -31.5 C-73.81250000000001 -31.5, -73.8125 -31.5, -73.8125 -31.5 M-73.81250000000001 -31.5 C-73.81250000000001 -31.5, -73.8125 -31.5, -73.8125 -31.5" stroke="#999" stroke-width="1.3" fill="none" stroke-dasharray="0 0" style=""/></g><g class="label" style="" transform="translate(-89.9375, -24)"><rect/><foreignObject width="179.875" height="48"><div xmlns="http://www.w3.org/1999/xhtml" style="display: table-cell; white-space: nowrap; line-height: 1.5; max-width: 200px; text-align: center;"><span class="nodeLabel"><p>Пользователь выбирает<br />публикацию</p></span></div></foreignObject></g></g><g class="node default" id="my-svg-flowchart-Pub-1" data-look="classic" transform="translate(398.59263610839844, 100.4375)"><rect class="basic label-container" style="" x="-130" y="-39" width="260" height="78"/><g class="label" style="" transform="translate(-100, -24)"><rect/><foreignObject width="200" height="48"><div xmlns="http://www.w3.org/1999/xhtml" style="display: table; white-space: break-spaces; line-height: 1.5; max-width: 200px; text-align: center; width: 200px;"><span class="nodeLabel"><p>GET /api/publications/current</p></span></div></foreignObject></g></g><g class="node default" id="my-svg-flowchart-Form-3" data-look="classic" transform="translate(708.5926361083984, 100.4375)"><rect class="basic label-container" style="" x="-130" y="-63" width="260" height="126"/><g class="label" style="" transform="translate(-100, -48)"><rect/><foreignObject width="200" height="96"><div xmlns="http://www.w3.org/1999/xhtml" style="display: table; white-space: break-spaces; line-height: 1.5; max-width: 200px; text-align: center; width: 200px;"><span class="nodeLabel"><p>Заполнение формы:<br />география, таксоны,<br />сбор, количественные хар-ки</p></span></div></foreignObject></g></g><g class="node default" id="my-svg-flowchart-Auto-5" data-look="classic" transform="translate(981.0301361083984, 100.4375)"><polygon points="92.4375,0 184.875,-92.4375 92.4375,-184.875 0,-92.4375" class="label-container" transform="translate(-91.9375, 92.4375)"/><g class="label" style="" transform="translate(-65.4375, -12)"><rect/><foreignObject width="130.875" height="24"><div xmlns="http://www.w3.org/1999/xhtml" style="display: table-cell; white-space: nowrap; line-height: 1.5; max-width: 200px; text-align: center;"><span class="nodeLabel"><p>Автосохранение?</p></span></div></foreignObject></g></g><g class="node default" id="my-svg-flowchart-Save-7" data-look="classic" transform="translate(1345.9676361083984, 100.4375)"><rect class="basic label-container" style="" x="-126.7265625" y="-39" width="253.453125" height="78"/><g class="label" style="" transform="translate(-96.7265625, -24)"><rect/><foreignObject width="193.453125" height="48"><div xmlns="http://www.w3.org/1999/xhtml" style="display: table-cell; white-space: nowrap; line-height: 1.5; max-width: 200px; text-align: center;"><span class="nodeLabel"><p>PUT /api/records/id<br />submission_type=autosave</p></span></div></foreignObject></g></g><g class="node default" id="my-svg-flowchart-Submit-11" data-look="classic" transform="translate(1646.8035736083984, 100.4375)"><rect class="basic label-container" style="" x="-124.109375" y="-27" width="248.21875" height="54"/><g class="label" style="" transform="translate(-94.109375, -12)"><rect/><foreignObject width="188.21875" height="24"><div xmlns="http://www.w3.org/1999/xhtml" style="display: table-cell; white-space: nowrap; line-height: 1.5; max-width: 200px; text-align: center;"><span class="nodeLabel"><p>PUT /api/records/id/submit</p></span></div></foreignObject></g></g><g class="node default" id="my-svg-flowchart-Valid-13" data-look="classic" transform="translate(1925.9207611083984, 100.4375)"><rect class="basic label-container" style="" x="-105.0078125" y="-39" width="210.015625" height="78"/><g class="label" style="" transform="translate(-75.0078125, -24)"><rect/><foreignObject width="150.015625" height="48"><div xmlns="http://www.w3.org/1999/xhtml" style="display: table-cell; white-space: nowrap; line-height: 1.5; max-width: 200px; text-align: center;"><span class="nodeLabel"><p>validate_record<br />5 модулей проверки</p></span></div></foreignObject></g></g><g class="node default" id="my-svg-flowchart-Ok-15" data-look="classic" transform="translate(2143.8270111083984, 100.4375)"><rect class="basic label-container" style="" x="-62.8984375" y="-27" width="125.796875" height="54"/><g class="label" style="" transform="translate(-32.8984375, -12)"><rect/><foreignObject width="65.796875" height="24"><div xmlns="http://www.w3.org/1999/xhtml" style="display: table-cell; white-space: nowrap; line-height: 1.5; max-width: 200px; text-align: center;"><span class="nodeLabel"><p>REC_OK</p></span></div></foreignObject></g></g><g class="node default" id="my-svg-flowchart-Sidebar-17" data-look="classic" transform="translate(2378.1941986083984, 42.4375)"><rect class="basic label-container" style="" x="-121.46875" y="-27" width="242.9375" height="54"/><g class="label" style="" transform="translate(-91.46875, -12)"><rect/><foreignObject width="182.9375" height="24"><div xmlns="http://www.w3.org/1999/xhtml" style="display: table-cell; white-space: nowrap; line-height: 1.5; max-width: 200px; text-align: center;"><span class="nodeLabel"><p>Просмотр в FormSidebar</p></span></div></foreignObject></g></g><g class="node default" id="my-svg-flowchart-Export-19" data-look="classic" transform="translate(2378.1941986083984, 158.4375)"><rect class="basic label-container" style="" x="-96.2578125" y="-39" width="192.515625" height="78"/><g class="label" style="" transform="translate(-66.2578125, -24)"><rect/><foreignObject width="132.515625" height="48"><div xmlns="http://www.w3.org/1999/xhtml" style="display: table-cell; white-space: nowrap; line-height: 1.5; max-width: 200px; text-align: center;"><span class="nodeLabel"><p>Экспорт XLSX<br />/api/records/export</p></span></div></foreignObject></g></g></g></g></g><defs><filter id="my-svg-drop-shadow" height="130%" width="130%"><feDropShadow dx="4" dy="4" stdDeviation="0" flood-opacity="0.06" flood-color="#000000"/></filter></defs><defs><filter id="my-svg-drop-shadow-small" height="150%" width="150%"><feDropShadow dx="2" dy="2" stdDeviation="0" flood-opacity="0.06" flood-color="#000000"/></filter></defs><linearGradient id="my-svg-gradient" gradientUnits="objectBoundingBox" x1="0%" y1="0%" x2="100%" y2="0%"><stop offset="0%" stop-color="hsl(0, 0%, 83.3333333333%)" stop-opacity="1"/><stop offset="100%" stop-color="hsl(0, 0%, 88.9215686275%)" stop-opacity="1"/></linearGradient></svg>